<?xml version="1.0" encoding="UTF-8" standalone="no"?>
<svg version="1.1" xmlns="http://www.w3.org/2000/svg" xmlns:xlink="http://www.w3.org/1999/xlink" width="13.8947" height="19.2813">
	<path id="dp_path001" fill="black" fill-rule="evenodd" stroke="none" stroke-width="0" d="M 5.94667,15.7067 C 7.10267,15.7067 7.996,15.32 8.62667,14.5467 C 9.25733,13.7733 9.644,12.72 9.78667,11.3867 C 8.64933,12.1507 7.42267,12.5333 6.10667,12.5333 C 4.364,12.5333 2.91067,11.96 1.74667,10.8133 C 0.582667,9.66667 0,8.15067 0,6.26667 C 0,4.38267 0.626667,2.86667 1.88,1.72 C 3.13333,0.573333 4.71067,0 6.61333,0 C 7.92933,0 9.07067,0.253333 10.04,0.76 C 11.0093,1.26667 11.7693,1.97333 12.32,2.88 C 13.3693,4.64 13.8933,6.844 13.8933,9.49333 C 13.8933,11.2 13.684,12.6973 13.2667,13.9867 C 12.8493,15.276 12.284,16.2933 11.5733,17.04 C 10.116,18.5333 8.34667,19.28 6.26667,19.28 C 5.396,19.28 4.56,19.1507 3.76,18.8933 C 2.96,18.636 2.356,18.3773 1.94667,18.12 C 1.53733,17.8627 1.06667,17.5293 0.533333,17.12 L 2.61333,14.1867 C 2.73733,14.2933 2.90267,14.4307 3.10667,14.6 C 3.31067,14.7693 3.70667,14.996 4.29333,15.28 C 4.88,15.564 5.43067,15.7067 5.94667,15.7067 Z M 6.52,8.98667 C 7.34667,8.98667 8.036,8.74667 8.58667,8.26667 C 9.13733,7.78667 9.41333,7.156 9.41333,6.37333 C 9.41333,5.59067 9.14667,4.916 8.61333,4.34667 C 8.08,3.77733 7.41333,3.49333 6.61333,3.49333 C 5.81333,3.49333 5.16,3.74667 4.65333,4.25333 C 4.14667,4.76 3.89333,5.404 3.89333,6.18667 C 3.89333,6.96933 4.124,7.63067 4.58667,8.17333 C 5.04933,8.716 5.69333,8.98667 6.52,8.98667 Z "/>
</svg>