<?xml version="1.0" encoding="UTF-8" standalone="no"?>
<svg version="1.1" xmlns="http://www.w3.org/2000/svg" xmlns:xlink="http://www.w3.org/1999/xlink" width="13.308" height="18.8547">
	<path id="dp_path001" fill="black" fill-rule="evenodd" stroke="none" stroke-width="0" d="M 12.1867,0 L 12.1867,3.6 L 4.82667,3.6 L 4.82667,6.72 C 5.37733,6.56 6.00933,6.48 6.72,6.48 C 8.516,6.48 10.0627,7.02267 11.36,8.10667 C 12.6573,9.19067 13.3067,10.6533 13.3067,12.4933 C 13.3067,14.3333 12.636,15.8533 11.2933,17.0533 C 9.95067,18.2533 8.29333,18.8533 6.32,18.8533 C 3.796,18.8533 1.68933,17.92 0,16.0533 L 2.18667,13.0133 C 2.34667,13.1733 2.56,13.3693 2.82667,13.6 C 3.09333,13.8307 3.58267,14.1373 4.29333,14.52 C 5.004,14.9027 5.716,15.0933 6.42667,15.0933 C 7.13733,15.0933 7.76933,14.88 8.32,14.4533 C 8.87067,14.0267 9.14667,13.396 9.14667,12.56 C 9.14667,11.724 8.84933,11.08 8.25333,10.6267 C 7.65733,10.1733 6.88933,9.94667 5.94667,9.94667 C 5.004,9.94667 3.91067,10.284 2.66667,10.96 L 0.933333,9.09333 L 0.933333,0 Z "/>
</svg>