<?xml version="1.0" encoding="UTF-8" standalone="no"?>
<svg version="1.1" xmlns="http://www.w3.org/2000/svg" xmlns:xlink="http://www.w3.org/1999/xlink" width="14.2413" height="19.2813">
	<path id="dp_path001" fill="black" fill-rule="evenodd" stroke="none" stroke-width="0" d="M 2.49333,1.46667 C 3.72933,0.489333 5.27067,0 7.12,0 C 8.96933,0 10.5067,0.489333 11.7333,1.46667 C 12.96,2.444 13.5733,3.64933 13.5733,5.08 C 13.5733,6.51067 13.0227,7.74267 11.92,8.77333 C 13.4667,9.964 14.24,11.5293 14.24,13.4667 C 14.24,15.1027 13.5827,16.48 12.2667,17.6 C 10.9507,18.72 9.236,19.28 7.12,19.28 C 5.004,19.28 3.28933,18.72 1.97333,17.6 C 0.657333,16.48 0,15.1027 0,13.4667 C 0,11.5293 0.773333,9.964 2.32,8.77333 C 1.2,7.724 0.64,6.48933 0.64,5.06667 C 0.64,3.644 1.25733,2.444 2.49333,1.46667 Z M 5.09333,15.1867 C 5.716,15.604 6.39067,15.8133 7.12,15.8133 C 7.84933,15.8133 8.524,15.604 9.14667,15.1867 C 9.76933,14.7693 10.08,14.16 10.08,13.36 C 10.08,12.56 9.77733,11.9467 9.17333,11.52 C 8.56933,11.0933 7.884,10.88 7.12,10.88 C 6.356,10.88 5.67067,11.0933 5.06667,11.52 C 4.46267,11.9467 4.16,12.56 4.16,13.36 C 4.16,14.16 4.47067,14.7693 5.09333,15.1867 Z M 5.34667,7.04 C 5.85333,7.46667 6.444,7.68 7.12,7.68 C 7.796,7.68 8.38667,7.46667 8.89333,7.04 C 9.4,6.61333 9.65333,6.084 9.65333,5.45333 C 9.65333,4.82267 9.404,4.29333 8.90667,3.86667 C 8.40933,3.44 7.81333,3.22667 7.12,3.22667 C 6.42667,3.22667 5.83067,3.44 5.33333,3.86667 C 4.836,4.29333 4.58667,4.82267 4.58667,5.45333 C 4.58667,6.084 4.84,6.61333 5.34667,7.04 Z "/>
</svg>