<?xml version="1.0" encoding="UTF-8" standalone="no"?>
<svg version="1.1" xmlns="http://www.w3.org/2000/svg" xmlns:xlink="http://www.w3.org/1999/xlink" width="15.4147" height="19.2813">
	<path id="dp_path001" fill="black" fill-rule="evenodd" stroke="none" stroke-width="0" d="M 4.96,5.14667 C 4.37333,6.284 4.08,7.78667 4.08,9.65333 C 4.08,11.52 4.37333,13.0227 4.96,14.16 C 5.54667,15.2973 6.46267,15.8667 7.70667,15.8667 C 8.95067,15.8667 9.86667,15.2973 10.4533,14.16 C 11.04,13.0227 11.3333,11.52 11.3333,9.65333 C 11.3333,7.78667 11.04,6.284 10.4533,5.14667 C 9.86667,4.00933 8.95067,3.44 7.70667,3.44 C 6.46267,3.44 5.54667,4.00933 4.96,5.14667 Z M 7.70667,19.28 C 5.12933,19.28 3.2,18.404 1.92,16.6533 C 0.64,14.9027 0,12.564 0,9.64 C 0,6.716 0.64,4.37733 1.92,2.62667 C 3.2,0.876 5.12933,0 7.70667,0 C 10.284,0 12.2133,0.876 13.4933,2.62667 C 14.7733,4.37733 15.4133,6.716 15.4133,9.64 C 15.4133,12.564 14.7733,14.9027 13.4933,16.6533 C 12.2133,18.404 10.284,19.28 7.70667,19.28 Z "/>
</svg>