<?xml version="1.0" encoding="UTF-8" standalone="no"?>
<svg version="1.1" xmlns="http://www.w3.org/2000/svg" xmlns:xlink="http://www.w3.org/1999/xlink" width="13.468" height="19.068">
	<path id="dp_path001" fill="black" fill-rule="evenodd" stroke="none" stroke-width="0" d="M 5.78667,10.3733 C 6.88933,9.25333 7.676,8.36 8.14667,7.69333 C 8.61733,7.02667 8.85333,6.38267 8.85333,5.76 C 8.85333,5.13733 8.64933,4.61733 8.24,4.2 C 7.83067,3.78267 7.30667,3.57333 6.66667,3.57333 C 5.49333,3.57333 4.38267,4.40933 3.33333,6.08 L 0,4.10667 C 0.870667,2.756 1.82667,1.73333 2.86667,1.04 C 3.90667,0.346667 5.23067,0 6.84,0 C 8.44933,0 9.86267,0.510667 11.08,1.53333 C 12.2973,2.556 12.9067,3.94667 12.9067,5.70667 C 12.9067,6.66667 12.6627,7.58667 12.1733,8.46667 C 11.684,9.34667 10.7827,10.4707 9.46667,11.84 L 6.10667,15.3333 L 13.4667,15.3333 L 13.4667,19.0667 L 0.32,19.0667 L 0.32,15.9733 Z "/>
</svg>