<?xml version="1.0" encoding="UTF-8" standalone="no"?>
<svg version="1.1" xmlns="http://www.w3.org/2000/svg" xmlns:xlink="http://www.w3.org/1999/xlink" width="13.8947" height="19.2813">
	<path id="dp_path001" fill="black" fill-rule="evenodd" stroke="none" stroke-width="0" d="M 7.94667,3.57333 C 6.79067,3.57333 5.89733,3.96 5.26667,4.73333 C 4.636,5.50667 4.24933,6.56 4.10667,7.89333 C 5.26267,7.14667 6.48933,6.77333 7.78667,6.77333 C 9.52933,6.77333 10.9827,7.34267 12.1467,8.48 C 13.3107,9.61733 13.8933,11.1333 13.8933,13.0267 C 13.8933,14.92 13.2667,16.436 12.0133,17.5733 C 10.76,18.7107 9.18267,19.28 7.28,19.28 C 5.964,19.28 4.82267,19.0267 3.85333,18.52 C 2.884,18.0133 2.13333,17.3067 1.6,16.4 C 0.533333,14.64 0,12.436 0,9.78667 C 0,8.08 0.209333,6.58267 0.626667,5.29333 C 1.044,4.004 1.61733,2.98667 2.34667,2.24 C 3.76933,0.746667 5.52933,0 7.62667,0 C 8.49733,0 9.32933,0.129333 10.12,0.386667 C 10.9107,0.644 11.52,0.906667 11.9467,1.17333 C 12.3733,1.44 12.844,1.77733 13.36,2.18667 L 11.3867,5.12 C 11.28,5.01333 11.124,4.87067 10.92,4.69333 C 10.716,4.516 10.3107,4.284 9.70667,4 C 9.10267,3.716 8.516,3.57333 7.94667,3.57333 Z M 7.4,10.2933 C 6.57333,10.2933 5.88,10.5373 5.32,11.0267 C 4.76,11.516 4.48,12.1507 4.48,12.9333 C 4.48,13.716 4.74667,14.3867 5.28,14.9467 C 5.81333,15.5067 6.48,15.7867 7.28,15.7867 C 8.08,15.7867 8.74667,15.5373 9.28,15.04 C 9.81333,14.5427 10.08,13.8973 10.08,13.1067 C 10.08,12.316 9.84,11.6493 9.36,11.1067 C 8.88,10.564 8.22667,10.2933 7.4,10.2933 Z "/>
</svg>