<?xml version="1.0" encoding="UTF-8" standalone="no"?>
<svg version="1.1" xmlns="http://www.w3.org/2000/svg" xmlns:xlink="http://www.w3.org/1999/xlink" width="13.3347" height="18.8547">
	<path id="dp_path001" fill="black" fill-rule="evenodd" stroke="none" stroke-width="0" d="M 1.04,3.54667 L 1.04,0 L 12.4533,0 L 12.4533,2.88 L 8.64,7.22667 C 10.1333,7.476 11.2893,8.10267 12.1067,9.10667 C 12.924,10.1107 13.3333,11.2707 13.3333,12.5867 C 13.3333,14.5427 12.6707,16.076 11.3467,17.1867 C 10.0227,18.2973 8.32933,18.8533 6.26667,18.8533 C 4.204,18.8533 2.116,18.124 0,16.6667 L 1.70667,13.36 C 3.46667,14.604 5.04,15.2267 6.42667,15.2267 C 7.26267,15.2267 7.95067,15.0227 8.49333,14.6133 C 9.036,14.204 9.30667,13.6133 9.30667,12.84 C 9.30667,12.0667 8.996,11.4533 8.37333,11 C 7.75067,10.5467 6.88933,10.32 5.78667,10.32 C 5.2,10.32 4.37333,10.4893 3.30667,10.8267 L 3.30667,7.76 L 6.88,3.54667 Z "/>
</svg>